<svg xmlns="http://www.w3.org/2000/svg" xmlns:xlink="http://www.w3.org/1999/xlink" viewBox="0,0,256,256" width="50px" height="50px"><g fill="#ffffff" fill-rule="nonzero" stroke="none" stroke-width="1" stroke-linecap="butt" stroke-linejoin="miter" stroke-miterlimit="10" stroke-dasharray="" stroke-dashoffset="0" font-family="none" font-weight="none" font-size="none" text-anchor="none" style="mix-blend-mode: normal"><g transform="scale(5.12,5.12)"><path d="M49.28,13.49c-0.63,-0.54 -1.52,-0.64 -2.27,-0.25l-12.987,6.938l-7.363,-11.258c-0.38,-0.59 -1.05,-0.95 -1.72,-0.92c-0.71,0.01 -1.34,0.38 -1.7,0.97l-6.918,11.232l-13.35,-6.969c-0.753,-0.393 -1.647,-0.282 -2.281,0.281c-0.643,0.572 -0.86,1.462 -0.556,2.263l6.804,18.206c0.44,1.206 1.595,2.017 2.873,2.017h31.6c0.001,0 0.002,0 0.003,0c0.585,0 1.585,0 2.485,-2.01l5.99,-18.28c0.27,-0.81 0.03,-1.68 -0.61,-2.22zM24.99,10.01l14.6,22.338l-21.474,-11.21zM9.812,34c-0.441,0 -0.841,-0.282 -0.997,-0.709l-6.768,-18.284l36.403,18.993zM47.99,15.08l-5.773,17.628l-7.082,-10.829l12.855,-6.849c0.01,0 0.01,0 0.01,0.01c0,0.01 0,0.02 -0.01,0.04z"></path></g></g></svg>